<svg viewBox="0 0 600 337" xmlns="http://www.w3.org/2000/svg"><clipPath id="shows-a"><path d="M370.4 257.8c0 5.4-4.4 9.8-9.6 9.8H239.5c-5.2 0-9.6-4.4-9.6-9.8s4.4-9.8 9.6-9.8h121.3c5.2 0 9.6 4.4 9.6 9.8zM202.5 86.1c-6.1 0-9.2 3.1-9.2 9.2v108.2c0 6 3.1 9.2 9.2 9.2h195.3c6.1 0 9.2-3.2 9.2-9.2V95.3c0-6.1-3.1-9.2-9.2-9.2zM199 69h202.1c15.6 0 24 8.1 24 23.7V206c0 15.6-8.4 23.7-24 23.7H199c-15.6 0-24-8.1-24-23.7V92.7c0-15.6 9.4-23.7 24-23.7z"/></clipPath><clipPath id="shows-b"><path d="M0 0h600v337H0z"/></clipPath><g clip-path="url(#shows-a)"><path clip-path="url(#shows-b)" d="M170 64h260.2v208.5H170z"/></g></svg>